# xmcd CD database file
#
# Track frame offsets:
#	150
#	19722
#	36975
#	55902
#	78462
#	98037
#	116702
#	140560
#	158242
#	180590
#	199722
#	218572
#
# Disc length: 3181 seconds
#
# Revision: 1
# Processed by: cddbd v1.5.2PL0 Copyright (c) Steve Scherf et al.
# Submitted via: CDex 1.51
#
DISCID=a00c6b0c
DTITLE=Candy Dulfer - Saxuality (US Release)
DYEAR=1991
DGENRE=Jazz
TTITLE0=Lily Was Here
TTITLE1=Pee Wee
TTITLE2=Saxuality
TTITLE3=So What
TTITLE4=Jazzid
TTITLE5=Heavenly City
TTITLE6=Donja
TTITLE7=There Goes The Neighbourhood
TTITLE8=Mr. Lee
TTITLE9=Get The Funk
TTITLE10=Home Is Not A House
TTITLE11=Lily Was Here (DNA Remix)
EXTD=YEAR: 1991
EXTT0=
EXTT1=
EXTT2=
EXTT3=
EXTT4=
EXTT5=
EXTT6=
EXTT7=
EXTT8=
EXTT9=
EXTT10=
EXTT11=
PLAYORDER=
